<svg xmlns="http://www.w3.org/2000/svg" xmlns:xlink="http://www.w3.org/1999/xlink" width="1366" zoomAndPan="magnify" viewBox="0 0 1024.5 576" height="768" preserveAspectRatio="xMidYMid meet" version="1.0"><defs><g/></defs><g fill="#ffffff" fill-opacity="1"><g transform="translate(19.652879, 242.280453)"><g><path d="M 63.546875 -203.234375 L 112.390625 -72.734375 L 159.125 -203.234375 L 186.953125 -203.234375 L 216.625 0 L 177.765625 0 L 162.015625 -122.890625 L 161.484375 -122.890625 L 116.578125 2.625 L 103.1875 2.625 L 59.875 -122.890625 L 59.34375 -122.890625 L 41.75 0 L 2.890625 0 L 36.234375 -203.234375 Z M 63.546875 -203.234375 "/></g></g></g><g fill="#ffffff" fill-opacity="1"><g transform="translate(239.164639, 242.280453)"><g><path d="M 98.734375 -128.921875 L 134.96875 -128.921875 L 134.96875 0 L 98.734375 0 L 98.734375 -11.8125 L 98.203125 -11.8125 C 94.347656 -6.738281 89.226562 -2.800781 82.84375 0 C 76.457031 2.800781 69.9375 4.203125 63.28125 4.203125 C 46.300781 4.203125 32.164062 -2.488281 20.875 -15.875 C 9.582031 -29.269531 3.9375 -45.6875 3.9375 -65.125 C 3.9375 -77.195312 6.382812 -88.394531 11.28125 -98.71875 C 16.1875 -109.050781 23.144531 -117.367188 32.15625 -123.671875 C 41.175781 -129.972656 51.375 -133.125 62.75 -133.125 C 69.40625 -133.125 75.925781 -131.722656 82.3125 -128.921875 C 88.707031 -126.117188 94.179688 -122.09375 98.734375 -116.84375 Z M 71.421875 -100.5625 C 63.191406 -100.5625 56.097656 -97.015625 50.140625 -89.921875 C 44.191406 -82.835938 41.21875 -74.394531 41.21875 -64.59375 C 41.21875 -54.789062 44.191406 -46.300781 50.140625 -39.125 C 56.097656 -31.945312 63.28125 -28.359375 71.6875 -28.359375 C 80.257812 -28.359375 87.519531 -31.898438 93.46875 -38.984375 C 99.425781 -46.078125 102.40625 -54.613281 102.40625 -64.59375 C 102.40625 -74.570312 99.382812 -83.0625 93.34375 -90.0625 C 87.300781 -97.0625 79.992188 -100.5625 71.421875 -100.5625 Z M 71.421875 -100.5625 "/></g></g></g><g fill="#ffffff" fill-opacity="1"><g transform="translate(387.518894, 242.280453)"><g><path d="M 49.890625 -222.671875 L 49.890625 -118.15625 L 50.421875 -118.15625 C 54.441406 -123.40625 59.382812 -127.210938 65.25 -129.578125 C 71.113281 -131.941406 77.375 -133.125 84.03125 -133.125 C 98.90625 -133.125 110.0625 -128.613281 117.5 -119.59375 C 124.9375 -110.582031 128.65625 -97.328125 128.65625 -79.828125 L 128.65625 0 L 91.90625 0 L 91.90625 -75.359375 C 91.90625 -82.359375 91.160156 -87.828125 89.671875 -91.765625 C 88.179688 -95.703125 86.125 -98.675781 83.5 -100.6875 C 80.875 -102.707031 76.9375 -103.71875 71.6875 -103.71875 C 64.15625 -103.71875 58.640625 -100.695312 55.140625 -94.65625 C 51.640625 -88.613281 49.890625 -79.289062 49.890625 -66.6875 L 49.890625 0 L 13.125 0 L 13.125 -222.671875 Z M 49.890625 -222.671875 "/></g></g></g><g fill="#ffffff" fill-opacity="1"><g transform="translate(529.308776, 242.280453)"><g><path d="M 98.734375 -128.921875 L 134.96875 -128.921875 L 134.96875 0 L 98.734375 0 L 98.734375 -11.8125 L 98.203125 -11.8125 C 94.347656 -6.738281 89.226562 -2.800781 82.84375 0 C 76.457031 2.800781 69.9375 4.203125 63.28125 4.203125 C 46.300781 4.203125 32.164062 -2.488281 20.875 -15.875 C 9.582031 -29.269531 3.9375 -45.6875 3.9375 -65.125 C 3.9375 -77.195312 6.382812 -88.394531 11.28125 -98.71875 C 16.1875 -109.050781 23.144531 -117.367188 32.15625 -123.671875 C 41.175781 -129.972656 51.375 -133.125 62.75 -133.125 C 69.40625 -133.125 75.925781 -131.722656 82.3125 -128.921875 C 88.707031 -126.117188 94.179688 -122.09375 98.734375 -116.84375 Z M 71.421875 -100.5625 C 63.191406 -100.5625 56.097656 -97.015625 50.140625 -89.921875 C 44.191406 -82.835938 41.21875 -74.394531 41.21875 -64.59375 C 41.21875 -54.789062 44.191406 -46.300781 50.140625 -39.125 C 56.097656 -31.945312 63.28125 -28.359375 71.6875 -28.359375 C 80.257812 -28.359375 87.519531 -31.898438 93.46875 -38.984375 C 99.425781 -46.078125 102.40625 -54.613281 102.40625 -64.59375 C 102.40625 -74.570312 99.382812 -83.0625 93.34375 -90.0625 C 87.300781 -97.0625 79.992188 -100.5625 71.421875 -100.5625 Z M 71.421875 -100.5625 "/></g></g></g><g fill="#ffffff" fill-opacity="1"><g transform="translate(677.663032, 242.280453)"><g><path d="M 80.609375 -188.796875 C 77.804688 -190.191406 75.265625 -191.28125 72.984375 -192.0625 C 70.710938 -192.851562 68.265625 -193.25 65.640625 -193.25 C 59.867188 -193.082031 56.019531 -190.804688 54.09375 -186.421875 C 52.164062 -182.046875 51.203125 -176.972656 51.203125 -171.203125 L 51.203125 -128.921875 L 80.609375 -128.921875 L 80.609375 -97.9375 L 51.203125 -97.9375 L 51.203125 0 L 14.4375 0 L 14.4375 -97.9375 L 2.09375 -97.9375 L 2.09375 -128.921875 L 14.4375 -128.921875 L 14.4375 -167.265625 C 14.4375 -185.640625 18.679688 -199.988281 27.171875 -210.3125 C 35.660156 -220.644531 47.609375 -225.8125 63.015625 -225.8125 C 69.671875 -225.8125 75.535156 -224.410156 80.609375 -221.609375 Z M 80.609375 -188.796875 "/></g></g></g><g fill="#ffffff" fill-opacity="1"><g transform="translate(757.22294, 242.280453)"><g><path d="M 49.109375 -128.921875 L 49.109375 -58.03125 C 49.109375 -37.195312 56.109375 -26.78125 70.109375 -26.78125 C 84.109375 -26.78125 91.109375 -37.195312 91.109375 -58.03125 L 91.109375 -128.921875 L 127.875 -128.921875 L 127.875 -51.984375 C 127.875 -34.304688 123.144531 -20.519531 113.6875 -10.625 C 104.238281 -0.738281 89.710938 4.203125 70.109375 4.203125 C 50.679688 4.203125 36.195312 -0.785156 26.65625 -10.765625 C 17.113281 -20.742188 12.34375 -34.484375 12.34375 -51.984375 L 12.34375 -128.921875 Z M 49.109375 -128.921875 "/></g></g></g><g fill="#ffffff" fill-opacity="1"><g transform="translate(897.700003, 242.280453)"><g><path d="M 126.296875 -128.921875 L 60.921875 -30.984375 L 122.09375 -30.984375 L 122.09375 0 L -0.265625 0 L 65.640625 -97.9375 L 9.984375 -97.9375 L 9.984375 -128.921875 Z M 126.296875 -128.921875 "/></g></g></g><g fill="#ffffff" fill-opacity="1"><g transform="translate(19.652879, 536.137026)"><g><path d="M 104.765625 -203.234375 L 179.859375 0 L 138.640625 0 L 123.40625 -41.75 L 54.609375 -41.75 L 38.34375 0 L -2.359375 0 L 74.828125 -203.234375 Z M 65.640625 -73.265625 L 112.640625 -73.265625 L 87.96875 -145.203125 L 87.4375 -145.203125 Z M 65.640625 -73.265625 "/></g></g></g><g fill="#ffffff" fill-opacity="1"><g transform="translate(197.152849, 536.137026)"><g><path d="M 49.890625 -222.671875 L 49.890625 -118.15625 L 50.421875 -118.15625 C 54.441406 -123.40625 59.382812 -127.210938 65.25 -129.578125 C 71.113281 -131.941406 77.375 -133.125 84.03125 -133.125 C 98.90625 -133.125 110.0625 -128.613281 117.5 -119.59375 C 124.9375 -110.582031 128.65625 -97.328125 128.65625 -79.828125 L 128.65625 0 L 91.90625 0 L 91.90625 -75.359375 C 91.90625 -82.359375 91.160156 -87.828125 89.671875 -91.765625 C 88.179688 -95.703125 86.125 -98.675781 83.5 -100.6875 C 80.875 -102.707031 76.9375 -103.71875 71.6875 -103.71875 C 64.15625 -103.71875 58.640625 -100.695312 55.140625 -94.65625 C 51.640625 -88.613281 49.890625 -79.289062 49.890625 -66.6875 L 49.890625 0 L 13.125 0 L 13.125 -222.671875 Z M 49.890625 -222.671875 "/></g></g></g><g fill="#ffffff" fill-opacity="1"><g transform="translate(338.942731, 536.137026)"><g><path d="M 98.734375 -128.921875 L 134.96875 -128.921875 L 134.96875 0 L 98.734375 0 L 98.734375 -11.8125 L 98.203125 -11.8125 C 94.347656 -6.738281 89.226562 -2.800781 82.84375 0 C 76.457031 2.800781 69.9375 4.203125 63.28125 4.203125 C 46.300781 4.203125 32.164062 -2.488281 20.875 -15.875 C 9.582031 -29.269531 3.9375 -45.6875 3.9375 -65.125 C 3.9375 -77.195312 6.382812 -88.394531 11.28125 -98.71875 C 16.1875 -109.050781 23.144531 -117.367188 32.15625 -123.671875 C 41.175781 -129.972656 51.375 -133.125 62.75 -133.125 C 69.40625 -133.125 75.925781 -131.722656 82.3125 -128.921875 C 88.707031 -126.117188 94.179688 -122.09375 98.734375 -116.84375 Z M 71.421875 -100.5625 C 63.191406 -100.5625 56.097656 -97.015625 50.140625 -89.921875 C 44.191406 -82.835938 41.21875 -74.394531 41.21875 -64.59375 C 41.21875 -54.789062 44.191406 -46.300781 50.140625 -39.125 C 56.097656 -31.945312 63.28125 -28.359375 71.6875 -28.359375 C 80.257812 -28.359375 87.519531 -31.898438 93.46875 -38.984375 C 99.425781 -46.078125 102.40625 -54.613281 102.40625 -64.59375 C 102.40625 -74.570312 99.382812 -83.0625 93.34375 -90.0625 C 87.300781 -97.0625 79.992188 -100.5625 71.421875 -100.5625 Z M 71.421875 -100.5625 "/></g></g></g><g fill="#ffffff" fill-opacity="1"><g transform="translate(487.297009, 536.137026)"><g><path d="M 118.953125 -112.90625 C 122.972656 -119.207031 128.351562 -124.148438 135.09375 -127.734375 C 141.832031 -131.328125 148.96875 -133.125 156.5 -133.125 C 170.320312 -133.125 180.601562 -128.75 187.34375 -120 C 194.082031 -111.25 197.453125 -98.46875 197.453125 -81.65625 L 197.453125 0 L 160.703125 0 L 160.703125 -72.203125 C 160.703125 -82.359375 159.429688 -90.148438 156.890625 -95.578125 C 154.347656 -101.003906 149.84375 -103.71875 143.375 -103.71875 C 136.71875 -103.71875 131.769531 -100.695312 128.53125 -94.65625 C 125.289062 -88.613281 123.671875 -78.851562 123.671875 -65.375 L 123.671875 0 L 86.90625 0 L 86.90625 -74.828125 C 86.90625 -84.460938 85.414062 -91.6875 82.4375 -96.5 C 79.46875 -101.3125 75.097656 -103.71875 69.328125 -103.71875 C 63.546875 -103.71875 58.859375 -101.175781 55.265625 -96.09375 C 51.679688 -91.019531 49.890625 -82.617188 49.890625 -70.890625 L 49.890625 0 L 13.125 0 L 13.125 -128.921875 L 49.890625 -128.921875 L 49.890625 -117.375 L 50.421875 -117.375 C 54.085938 -122.445312 58.765625 -126.335938 64.453125 -129.046875 C 70.148438 -131.765625 75.972656 -133.125 81.921875 -133.125 C 98.378906 -133.125 110.722656 -126.382812 118.953125 -112.90625 Z M 118.953125 -112.90625 "/></g></g></g><g fill="#ffffff" fill-opacity="1"><g transform="translate(697.881241, 536.137026)"><g><path d="M 42.796875 -58.5625 C 42.796875 -47.875 45.070312 -39.421875 49.625 -33.203125 C 54.175781 -26.992188 60.390625 -23.890625 68.265625 -23.890625 C 74.390625 -23.890625 79.421875 -25.550781 83.359375 -28.875 C 87.304688 -32.207031 90.503906 -36.410156 92.953125 -41.484375 L 126.828125 -35.96875 C 122.273438 -22.84375 114.789062 -12.863281 104.375 -6.03125 C 93.957031 0.789062 81.921875 4.203125 68.265625 4.203125 C 49.191406 4.203125 33.703125 -2.007812 21.796875 -14.4375 C 9.890625 -26.863281 3.9375 -43.144531 3.9375 -63.28125 C 3.9375 -84.457031 9.535156 -101.390625 20.734375 -114.078125 C 31.941406 -126.773438 47.175781 -133.125 66.4375 -133.125 C 85.6875 -133.125 100.691406 -126.910156 111.453125 -114.484375 C 122.222656 -102.054688 127.609375 -84.460938 127.609375 -61.703125 L 127.609375 -58.5625 Z M 92.953125 -81.40625 C 91.722656 -89.457031 88.832031 -95.800781 84.28125 -100.4375 C 79.726562 -105.070312 74.390625 -107.390625 68.265625 -107.390625 C 62.492188 -107.390625 57.332031 -105.289062 52.78125 -101.09375 C 48.226562 -96.894531 45.25 -90.332031 43.84375 -81.40625 Z M 92.953125 -81.40625 "/></g></g></g><g fill="#ffffff" fill-opacity="1"><g transform="translate(829.430776, 536.137026)"><g><path d="M 135.234375 -222.671875 L 135.234375 0 L 98.46875 0 L 98.46875 -12.078125 L 97.9375 -12.078125 C 94.09375 -6.828125 89.019531 -2.800781 82.71875 0 C 76.414062 2.800781 69.9375 4.203125 63.28125 4.203125 C 46.300781 4.203125 32.164062 -2.445312 20.875 -15.75 C 9.582031 -29.050781 3.9375 -45.507812 3.9375 -65.125 C 3.9375 -83.851562 9.582031 -99.867188 20.875 -113.171875 C 32.164062 -126.472656 46.125 -133.125 62.75 -133.125 C 69.40625 -133.125 75.925781 -131.722656 82.3125 -128.921875 C 88.707031 -126.117188 93.914062 -122.179688 97.9375 -117.109375 L 98.46875 -117.109375 L 98.46875 -222.671875 Z M 71.421875 -100.5625 C 63.191406 -100.5625 56.097656 -97.015625 50.140625 -89.921875 C 44.191406 -82.835938 41.21875 -74.394531 41.21875 -64.59375 C 41.21875 -54.613281 44.191406 -46.078125 50.140625 -38.984375 C 56.097656 -31.898438 63.28125 -28.359375 71.6875 -28.359375 C 80.4375 -28.359375 87.695312 -32.035156 93.46875 -39.390625 C 99.25 -46.742188 102.140625 -55.144531 102.140625 -64.59375 C 102.140625 -74.394531 99.160156 -82.835938 93.203125 -89.921875 C 87.253906 -97.015625 79.992188 -100.5625 71.421875 -100.5625 Z M 71.421875 -100.5625 "/></g></g></g></svg>